HIERARCHY
ROOT pelvis
{
  OFFSET 0 100 0
  CHANNELS 6 Xposition Yposition Zposition Zrotation Xrotation Yrotation
  JOINT pelvis_right_femur
  {
    OFFSET -10.78128 -3.44521 -0.5502486
    CHANNELS 3 Zrotation Xrotation Yrotation
    JOINT right_femur_tibia
    {
      OFFSET -0.8047443 -44.0398 -0.1307829
      CHANNELS 3 Zrotation Xrotation Yrotation
      JOINT right_tibia_foot
      {
        OFFSET 3.006224 -47.83518 -5
        CHANNELS 3 Zrotation Xrotation Yrotation
        End Site
        {
          OFFSET 0 -5 15
        }
      }
    }
  }
  JOINT pelvis_left_femur
  {
    OFFSET 10.78128 -3.44521 -0.5502486
    CHANNELS 3 Zrotation Xrotation Yrotation
    JOINT left_femur_tibia
    {
      OFFSET 0.8047443 -44.0398 -0.1307829
      CHANNELS 3 Zrotation Xrotation Yrotation
      JOINT left_tibia_foot
      {
        OFFSET -4.370144 -48.10324 -4.275266
        CHANNELS 3 Zrotation Xrotation Yrotation
        End Site
        {
          OFFSET 0 -5 15
        }
      }
    }
  }
  JOINT pelvis_spine1
  {
    OFFSET 0 6.468898 -3.129235
    CHANNELS 3 Zrotation Xrotation Yrotation
    JOINT spine1
    {
      OFFSET 0 23.15396 4.99043
      CHANNELS 3 Zrotation Xrotation Yrotation
      JOINT spine2
      {
        OFFSET 0 20.79997 -5.064912
        CHANNELS 3 Zrotation Xrotation Yrotation
        JOINT neck
        {
          OFFSET 0 14.38658 9.616178
          CHANNELS 3 Zrotation Xrotation Yrotation
          End Site
          {
            OFFSET 0 20 0
          }
        }
      }
      JOINT right_manubrium
      {
        OFFSET -5.722621 16.35077 3.967754
        CHANNELS 3 Zrotation Xrotation Yrotation
        JOINT right_clavicle
        {
          OFFSET -13.16364 1.694482 -4.693211
          CHANNELS 3 Zrotation Xrotation Yrotation
          JOINT right_humerus
          {
            OFFSET -28.5034 -0.3100689 -2.792744
            CHANNELS 3 Zrotation Xrotation Yrotation
            JOINT right_radius
            {
              OFFSET -25.15693 0.02248979 -1.271978
              CHANNELS 3 Zrotation Xrotation Yrotation
              End Site
              {
                OFFSET -15 0 0
              }
            }
          }
        }
      }
      JOINT left_manubrium
      {
        OFFSET 5.722621 16.35077 3.967754
        CHANNELS 3 Zrotation Xrotation Yrotation
        JOINT left_clavicle
        {
          OFFSET 13.16364 1.694482 -4.693211
          CHANNELS 3 Zrotation Xrotation Yrotation
          JOINT left_humerus
          {
            OFFSET 29.39168 -1.063119 -2.237045
            CHANNELS 3 Zrotation Xrotation Yrotation
            JOINT left_radius
            {
              OFFSET 24.59957 -0.9528479 0.9047498
              CHANNELS 3 Zrotation Xrotation Yrotation
              End Site
              {
                OFFSET 15 -0 -0
              }
            }
          }
        }
      }
    }
  }
}
MOTION
Frames: 21
Frame Time: 0.0416666666667
0 103.5113 0 2.520465 -1.78456 0.1938075 0.8718127 -11.29536 7.256276 -0 36.9199 -0 -4.735893 -18.8884 -2.886416 -7.9935 11.27889 -23.79792 -0 4.073833 -0 8.093939 -15.42989 25.88657 -2.568054 -3.695236 5.110941 3.161512 9.522289 -8.149277 1.240261 21.49224 6.379601 2.37552 -26.97547 9.826812 5.757432 -19.77148 11.33862 86.06886 33.91932 -20.24725 -0 0 16.12701 -5.738392 6.974317 3.624749 6.297623 -20.85933 -0.2473981 -95.68052 26.23729 24.41968 0 0 -13.89111 9.918334 17.1558 2.441128
0.2528056 103.4948 1.368557 1.99848 -1.089533 0.2227735 1.863124 -13.36129 8.489682 -0 37.16357 -0 -4.079046 -18.06404 -3.245336 -7.677813 11.08511 -23.75639 -0 4.488928 -0 7.232424 -16.30157 25.8817 -2.584961 -3.728842 5.111213 3.134339 9.495391 -8.117234 1.257158 21.51922 6.363043 2.360747 -26.92257 9.839935 5.775887 -19.76919 11.31363 85.97394 33.9259 -20.11747 -0 0 16.21782 -5.777998 7.023787 3.621365 6.326236 -20.82834 -0.1913977 -95.70836 26.16573 24.41432 0 0 -13.67181 9.995162 17.2907 2.315876
0.5248671 103.3646 3.058917 1.140927 -0.6933996 0.2451813 3.165157 -17.39714 7.829894 -0 34.54631 -0 -5.054503 -15.04893 -3.178442 -7.036945 11.55845 -22.712 -0 5.164236 -0 5.523751 -18.49856 24.80113 -2.316467 -3.189115 5.045293 3.205949 9.760582 -8.240331 1.159338 21.22983 6.52489 2.596267 -26.82668 9.588337 5.694095 -19.45771 11.51814 86.58292 34.25702 -20.68409 -0 0 15.12495 -6.25952 7.434343 4.024892 6.143195 -21.01098 -0.5752333 -94.73151 25.75767 23.48772 0 0 -15.30867 9.72347 15.89884 2.792722
0.8135082 103.1618 4.97815 0.5124623 0.05035419 0.2694404 4.307658 -20.90212 7.985074 -0 32.38437 -0 -5.298409 -13.08371 -3.245265 -6.645575 11.74689 -21.95344 -0 5.487384 -0 4.850561 -19.99547 24.25038 -2.148802 -2.903337 4.967051 3.343636 9.9375 -8.417989 1.080981 20.95795 6.711371 2.776357 -26.99351 9.523853 5.637659 -19.30617 11.67868 87.16762 34.37011 -21.42236 -0 0 14.37607 -6.323621 7.568 4.147909 6.09073 -21.23964 -0.8775973 -94.15122 25.59407 22.94885 0 0 -16.77216 9.613758 14.91301 3.133577
1.108236 102.8036 7.246158 0.07591107 0.8777403 0.3512365 5.186671 -24.50925 7.542299 -0 28.83111 -0 -5.687146 -10.90559 -3.013766 -6.437817 12.12217 -20.89766 -0 5.691918 -0 5.010944 -21.2238 23.64302 -2.002483 -2.665609 4.900311 3.470687 10.11029 -8.60421 0.9943023 20.70075 6.876674 2.945168 -27.13079 9.428686 5.575281 -19.18109 11.83032 87.74716 34.43351 -22.17321 -0 0 13.69071 -6.428037 7.672401 4.288823 6.04833 -21.49732 -1.182375 -93.61032 25.5109 22.4638 0 0 -18.22284 9.419778 13.97471 3.575362
1.403452 102.2854 9.920892 -0.2608275 1.768643 0.5208635 5.907596 -27.9151 7.006339 -0 24.94385 -0 -5.987418 -8.773049 -2.665991 -6.322214 12.59148 -19.82316 -0 6.056118 -0 5.387828 -22.15863 22.97295 -1.886818 -2.494731 4.850809 3.575615 10.2663 -8.780074 0.9094288 20.47862 7.012652 3.091022 -27.23287 9.321613 5.520408 -19.09306 11.9617 88.26822 34.44922 -22.8703 -0 0 13.13257 -6.554947 7.74737 4.42417 6.021962 -21.75785 -1.460893 -93.1675 25.50181 22.08544 0 0 -19.51339 9.17357 13.1749 4.06644
1.691765 101.6214 13.08261 -0.5460904 2.578385 0.8057903 6.454363 -30.9591 6.254927 -0 20.99526 -0 -6.353366 -6.545013 -2.17568 -6.237844 13.21905 -18.69725 -0 6.893825 -0 5.69439 -22.71986 22.07318 -1.794188 -2.369518 4.820707 3.64942 10.41413 -8.937164 0.826903 20.2961 7.115467 3.216307 -27.2726 9.189293 5.475918 -19.02927 12.0754 88.72432 34.43384 -23.48897 -0 0 12.68376 -6.742011 7.821625 4.571338 5.998744 -22.01047 -1.71756 -92.80376 25.54768 21.7939 0 0 -20.62312 8.858279 12.4964 4.619127
1.968133 100.8716 16.80618 -0.8558837 3.226571 1.22095 6.909943 -33.45477 5.412987 -0 17.50761 -0 -6.830086 -4.277095 -1.592751 -6.109044 13.96613 -17.55738 -0 8.540655 -0 5.623122 -22.78499 20.83413 -1.722587 -2.278962 4.810602 3.687517 10.55497 -9.067611 0.7491865 20.15883 7.183491 3.320228 -27.24017 9.031723 5.444758 -18.98439 12.17082 89.10262 34.39931 -24.00424 -0 0 12.34218 -6.99982 7.908453 4.733444 5.971497 -22.24173 -1.950036 -92.5168 25.63703 21.58517 0 0 -21.52262 8.476211 11.9413 5.223793
2.230035 100.1399 21.16045 -1.248825 3.618399 1.75839 7.350133 -35.12431 4.576582 -0 14.92767 -0 -7.455575 -2.089499 -0.9656561 -5.862902 14.74228 -16.39007 -0 11.38625 -0 4.902706 -22.15504 19.12439 -1.671373 -2.212867 4.821246 3.686839 10.68915 -9.164926 0.6776094 20.07146 7.21545 3.401998 -27.12856 8.848209 5.427534 -18.95506 12.24748 89.39192 34.35672 -24.39413 -0 0 12.10488 -7.338733 8.016921 4.916195 5.932688 -22.43992 -2.157405 -92.30205 25.76334 21.45546 0 0 -22.19577 8.026623 11.50561 5.875552
2.480867 99.57965 26.1856 -1.766106 3.708688 2.371128 7.883458 -35.62431 3.943343 -0 13.63575 -0 -8.161457 -0.2559649 -0.4014723 -5.432067 15.32743 -15.17522 -0 15.82778 -0 3.319857 -20.59218 16.87624 -1.641662 -2.162626 4.853774 3.644995 10.81481 -9.222233 0.6132574 20.03837 7.210242 3.46038 -26.93288 8.639002 5.423047 -18.93992 12.30412 89.57808 34.31784 -24.63311 -0 0 11.97147 -7.768899 8.153388 5.127503 5.875422 -22.59301 -2.337445 -92.15416 25.92071 21.40175 0 0 -22.63041 7.511349 11.18408 6.566561
2.732564 99.37805 31.86024 -2.392365 3.513457 2.956033 8.571314 -34.56637 3.734532 -0 13.74553 -0 -8.751992 0.8336817 -0.07309149 -4.788677 15.34072 -13.86586 -0 22.18469 -0 0.8614173 -17.88752 14.18529 -1.636143 -2.121144 4.910288 3.559948 10.92832 -9.23213 0.5567569 20.06327 7.167125 3.494088 -26.65004 8.404753 5.428218 -18.94011 12.33907 89.64395 34.29526 -24.69178 -0 0 11.94445 -8.302134 8.321844 5.378655 5.79327 -22.68924 -2.48718 -92.06721 26.10385 21.42309 0 0 -22.81912 6.933528 10.96898 7.288398
3.00522 99.70741 38.06044 -3.01232 3.122764 3.356609 9.313825 -31.65202 4.080211 -0 14.88984 -0 -8.94976 0.7834871 -0.1769919 -3.995513 14.25289 -12.42428 -0 30.48792 -0 -2.118073 -14.07486 11.43622 -1.658848 -2.08253 4.994113 3.429765 11.02428 -9.186177 0.5084201 20.14871 7.086105 3.502109 -26.27865 8.146847 5.437969 -18.95917 12.35041 89.56847 34.30294 -24.53503 -0 0 12.02941 -8.953157 8.524819 5.685116 5.680518 -22.71688 -2.602661 -92.03418 26.30572 21.52025 0 0 -22.75875 6.299532 10.84949 8.030136
3.31783 100.6358 44.54114 -3.377936 2.606663 3.40779 9.75355 -26.8946 4.808436 -0 16.14398 -0 -8.639548 -0.5530784 -0.7558201 -3.246466 11.5513 -10.90746 -0 40.19863 -0 -4.850045 -9.73263 9.286245 -1.714744 -2.042194 5.109958 3.252894 11.09573 -9.075046 0.4682326 20.29498 6.96888 3.484324 -25.82059 7.868222 5.44508 -19.00346 12.3364 89.32703 34.35574 -24.12278 -0 0 12.23489 -9.738818 8.762872 6.066359 5.532737 -22.6649 -2.679374 -92.04715 26.51653 21.69646 0 0 -22.45291 5.620753 10.81053 8.777471
3.670612 102.0435 50.98087 -3.176353 1.856782 3.032968 9.414487 -20.8101 5.352541 -0 16.38946 -0 -8.159448 -2.826068 -1.486037 -2.817619 7.049565 -9.57008 -0 49.9945 -0 -6.469644 -6.043068 8.366123 -1.808653 -1.996878 5.263547 3.028998 11.13475 -8.889517 0.4358545 20.49817 6.820253 3.442427 -25.28356 7.574532 5.440235 -19.08192 12.29629 88.89415 34.46783 -23.41413 -0 0 12.57067 -10.67545 9.033981 6.544271 5.34794 -22.52455 -2.713073 -92.09696 26.72202 21.95665 0 0 -21.91688 4.91628 10.83105 9.511154
4.034795 103.6396 57.1045 -2.261557 0.6379037 2.354558 8.1131 -14.26277 5.060282 -0 15.02814 -0 -8.074182 -5.252385 -1.778446 -2.864958 1.124663 -8.719462 -0 57.92102 -0 -6.661409 -4.124607 8.822196 -1.943227 -1.944716 5.460443 2.760374 11.13397 -8.622875 0.4106106 20.74783 6.649642 3.380967 -24.68391 7.275203 5.412803 -19.20463 12.23151 88.24977 34.64876 -22.37733 -0 0 13.04368 -11.77345 9.332859 7.138876 5.128224 -22.29213 -2.701363 -92.17287 26.90228 22.30524 0 0 -21.18379 4.214713 10.88284 10.20646
4.366854 105.0993 62.81993 -0.8869561 -1.015774 1.665916 6.292849 -7.934859 3.962872 -0 12.46744 -0 -8.286937 -7.127505 -1.372953 -3.121263 -5.40235 -8.231917 -0 62.0448 -0 -6.020805 -4.017569 10.19371 -2.116115 -1.88505 5.703978 2.453494 11.08944 -8.274547 0.3915534 21.0253 6.471578 3.307902 -24.04782 6.983369 5.352805 -19.3797 12.14698 87.38937 34.89747 -21.00527 -0 0 13.65185 -13.03031 9.651255 7.861375 4.88125 -21.97234 -2.645777 -92.26238 27.03152 22.7416 0 0 -20.3081 3.553036 10.93108 10.83478
4.636519 106.1774 68.23372 0.3699406 -2.719686 1.159209 4.819006 -2.068518 3.017472 -0 9.887113 -0 -7.932976 -8.349464 -0.7831022 -2.868604 -11.64365 -7.433704 -0 61.18732 -0 -5.409187 -4.703607 11.95436 -2.317518 -1.818095 5.992844 2.119767 11.00406 -7.853753 0.3776141 21.30458 6.304079 3.233983 -23.40891 6.713914 5.253957 -19.60918 12.05181 86.33506 35.19588 -19.3324 -0 0 14.37814 -14.42462 9.979339 8.706299 4.620552 -21.58065 -2.553653 -92.35205 27.08027 23.25524 0 0 -19.36166 2.970479 10.93801 11.36856
4.856194 106.6982 73.50795 0.9945565 -4.179412 0.7586162 4.28134 3.229246 2.877234 -0 8.274201 -0 -6.798919 -9.497076 -0.6621268 -1.588723 -16.94517 -5.90474 -0 55.22771 -0 -5.004648 -5.299813 13.95446 -2.529799 -1.744693 6.319137 1.774951 10.88996 -7.381402 0.3678057 21.55633 6.164988 3.170864 -22.80237 6.480171 5.116692 -19.88575 11.95858 85.14306 35.50662 -17.4458 -0 0 15.18794 -15.91342 10.30746 9.646038 4.364155 -21.14307 -2.438783 -92.42959 27.02141 23.82293 0 0 -18.42269 2.498237 10.86954 11.78902
5.092208 106.5682 78.75325 0.894147 -5.211367 0.3045971 4.544126 7.765243 3.089449 -0 7.724649 -0 -5.719791 -11.25462 -0.8882267 0.3995804 -21.04531 -4.055006 -0 45.34112 -0 -4.50776 -5.60692 15.95906 -2.730033 -1.666104 6.667377 1.437364 10.76754 -6.889101 0.3614367 21.7541 6.06776 3.12856 -22.25806 6.29085 4.949701 -20.19155 11.88106 83.90342 35.77871 -15.48408 -0 0 16.03063 -17.43399 10.62787 10.63055 4.131699 -20.6932 -2.320107 -92.48571 26.83913 24.40855 0 0 -17.56284 2.149267 10.70291 12.09367
5.427335 105.8587 84.07305 0.3631776 -5.560944 -0.253422 5.023386 11.34848 3.116084 -0 7.944774 -0 -5.149944 -13.5716 -0.9293022 2.296202 -23.97997 -2.537695 -0 33.99175 -0 -3.879775 -5.600266 17.42726 -2.895079 -1.583406 7.015422 1.125159 10.66089 -6.414479 0.3583122 21.88074 6.018344 3.113009 -21.79431 6.148495 4.768781 -20.49983 11.83072 82.72746 35.96122 -13.61769 -0 0 16.84559 -18.91249 10.93693 11.59469 3.940395 -20.26659 -2.218226 -92.51447 26.53662 24.96599 0 0 -16.83662 1.913362 10.43246 12.29942
5.915225 104.7929 89.60968 -0.2071211 -5.162922 -0.8659799 5.172519 14.01459 2.964136 -0 8.823105 -0 -4.761095 -15.71023 -0.5644304 3.456919 -25.85796 -1.719372 -0 23.92299 -0 -3.395106 -5.310472 18.10732 -3.00757 -1.496693 7.338325 0.8530155 10.5909 -5.993171 0.3588136 21.93245 6.014502 3.124682 -21.41482 6.050026 4.59272 -20.78019 11.81361 81.72254 36.01928 -12.01024 -0 0 17.57284 -20.27974 11.23698 12.47323 3.800814 -19.89337 -2.150669 -92.51209 26.13758 25.44636 0 0 -16.27495 1.760819 10.07066 12.43852
